<svg width="29" height="37" viewBox="0 0 29 37" fill="none" xmlns="http://www.w3.org/2000/svg">
<path d="M20.0769 4.625H26.7692C28.1077 4.625 29 5.55 29 6.9375V9.25H0V6.9375C0 5.55 1.11538 4.625 2.23077 4.625H8.92308C9.36923 2.08125 11.8231 0 14.5 0C17.1769 0 19.6308 2.08125 20.0769 4.625ZM11.1538 4.625H17.8462C17.4 3.2375 15.8385 2.3125 14.5 2.3125C13.1615 2.3125 11.6 3.2375 11.1538 4.625ZM2.23077 11.5625H26.7692L24.7615 34.9188C24.7615 36.075 23.6462 37 22.5308 37H6.46923C5.35385 37 4.46154 36.075 4.23846 34.9188L2.23077 11.5625Z" fill="black"/>
</svg>
